<?xml version="1.0" standalone="no"?>
<!DOCTYPE svg PUBLIC "-//W3C//DTD SVG 20010904//EN"
 "http://www.w3.org/TR/2001/REC-SVG-20010904/DTD/svg10.dtd">
<svg version="1.0" xmlns="http://www.w3.org/2000/svg"
 width="3000.000000pt" height="3000.000000pt" viewBox="0 0 3000.000000 3000.000000"
 preserveAspectRatio="xMidYMid meet">
<metadata>
Created by potrace 1.11, written by Peter Selinger 2001-2013
</metadata>
<g transform="translate(0.000000,3000.000000) scale(0.100000,-0.100000)"
fill="#000000" stroke="none">
<path d="M14358 27435 c-2 -1 -73 -6 -158 -9 -85 -4 -175 -8 -200 -10 -117
-10 -228 -19 -255 -21 -72 -5 -229 -21 -305 -31 -57 -8 -93 -12 -155 -19 -27
-4 -124 -18 -215 -32 -91 -13 -174 -26 -185 -28 -11 -1 -63 -10 -115 -19 -52
-10 -108 -19 -125 -22 -16 -3 -48 -9 -70 -14 -48 -11 -103 -21 -130 -25 -11
-2 -20 -4 -20 -5 0 -1 -7 -3 -15 -5 -8 -1 -40 -8 -70 -14 -30 -6 -64 -13 -75
-15 -11 -2 -40 -9 -65 -16 -25 -7 -56 -14 -70 -16 -14 -3 -33 -7 -42 -10 -9
-3 -26 -7 -37 -9 -43 -10 -58 -14 -136 -34 -44 -12 -89 -24 -101 -26 -37 -8
-428 -123 -457 -134 -15 -6 -38 -13 -50 -15 -38 -7 -511 -171 -587 -203 -8 -3
-17 -7 -20 -8 -3 -1 -14 -5 -25 -10 -11 -4 -72 -28 -135 -53 -109 -42 -134
-52 -240 -98 -24 -10 -47 -19 -50 -20 -6 -1 -55 -22 -230 -102 -135 -61 -662
-321 -670 -331 -3 -3 -21 -14 -40 -23 -32 -16 -85 -45 -200 -110 -136 -77
-196 -113 -201 -121 -3 -5 -8 -8 -10 -6 -2 1 -22 -9 -44 -23 -22 -13 -56 -33
-75 -44 -19 -10 -41 -25 -49 -32 -8 -8 -24 -18 -35 -23 -20 -9 -48 -25 -70
-42 -6 -4 -49 -32 -96 -62 -47 -30 -89 -58 -95 -62 -5 -5 -55 -38 -110 -75
-55 -36 -111 -76 -124 -87 -13 -12 -28 -21 -32 -21 -4 0 -14 -6 -21 -13 -7 -7
-30 -23 -50 -36 -21 -12 -38 -27 -38 -32 0 -6 -5 -7 -10 -4 -6 3 -13 -1 -16
-9 -3 -9 -12 -16 -20 -16 -7 0 -17 -6 -21 -13 -4 -8 -21 -22 -38 -33 -35 -22
-33 -20 -105 -77 -30 -23 -89 -68 -130 -99 -41 -32 -87 -68 -101 -80 -15 -13
-44 -36 -65 -53 -20 -16 -42 -35 -48 -40 -6 -6 -30 -24 -53 -41 -24 -17 -40
-34 -36 -37 3 -4 1 -7 -5 -7 -11 0 -31 -15 -86 -65 -12 -11 -46 -40 -76 -65
-29 -25 -68 -58 -86 -75 -18 -16 -62 -57 -99 -90 -223 -200 -643 -621 -788
-790 -17 -20 -50 -57 -74 -81 -24 -25 -43 -47 -43 -49 0 -3 -12 -18 -28 -34
-15 -16 -43 -48 -62 -72 -19 -23 -42 -49 -50 -58 -15 -15 -83 -98 -120 -145
-8 -10 -22 -26 -30 -36 -8 -9 -37 -45 -64 -81 -27 -35 -57 -72 -65 -81 -17
-18 -20 -22 -163 -213 -81 -108 -177 -242 -203 -283 -10 -16 -20 -30 -42 -56
-7 -8 -13 -18 -13 -21 0 -3 -12 -23 -28 -44 -55 -78 -142 -211 -142 -217 0 -3
-5 -10 -10 -17 -24 -27 -140 -213 -140 -224 0 -6 -4 -13 -8 -15 -8 -3 -48 -68
-109 -176 -13 -24 -40 -69 -59 -100 -18 -31 -34 -62 -34 -69 0 -6 -4 -13 -9
-15 -9 -3 -98 -166 -179 -328 -26 -52 -50 -97 -53 -100 -3 -3 -15 -25 -26 -50
-11 -25 -48 -101 -81 -170 -86 -179 -112 -237 -185 -406 -73 -170 -220 -535
-222 -554 0 -3 -3 -9 -6 -15 -4 -5 -14 -35 -24 -65 -10 -30 -20 -59 -24 -65
-3 -5 -6 -13 -7 -17 -1 -5 -2 -9 -4 -10 -1 -2 -3 -10 -5 -18 -4 -14 -101 -309
-113 -340 -7 -19 -6 -17 -21 -70 -7 -25 -19 -65 -28 -90 -8 -25 -17 -54 -19
-64 -2 -11 -10 -40 -19 -66 -9 -26 -18 -56 -20 -68 -8 -35 -13 -55 -25 -92 -6
-19 -13 -44 -15 -55 -3 -11 -14 -56 -25 -100 -12 -44 -23 -87 -25 -95 -1 -8
-8 -35 -15 -60 -7 -25 -14 -55 -16 -66 -2 -12 -18 -81 -34 -154 -16 -73 -32
-143 -34 -156 -3 -13 -12 -59 -20 -101 -9 -43 -17 -89 -20 -103 -2 -14 -7 -36
-10 -50 -3 -14 -7 -38 -10 -55 -2 -16 -11 -70 -20 -120 -8 -49 -18 -110 -21
-135 -3 -25 -8 -52 -10 -60 -2 -8 -7 -37 -10 -65 -3 -27 -7 -59 -9 -70 -2 -11
-7 -45 -10 -76 -4 -31 -8 -65 -10 -75 -2 -11 -7 -50 -11 -89 -4 -38 -8 -83
-10 -98 -2 -15 -7 -60 -10 -100 -4 -40 -9 -85 -11 -102 -1 -16 -6 -73 -9 -125
-4 -52 -8 -111 -10 -130 -26 -264 -26 -1236 0 -1527 8 -95 17 -199 20 -248 1
-27 6 -75 9 -105 4 -30 9 -77 11 -105 3 -27 8 -66 10 -85 3 -19 7 -53 9 -75 8
-60 27 -207 31 -235 18 -125 22 -153 29 -187 3 -11 8 -43 12 -70 3 -26 8 -57
10 -68 2 -11 9 -47 15 -80 5 -33 12 -71 15 -85 3 -14 7 -38 10 -55 11 -57 73
-350 89 -415 9 -36 18 -76 21 -90 4 -19 60 -237 78 -305 2 -5 6 -23 10 -40 34
-131 207 -691 236 -760 4 -11 22 -60 40 -110 35 -97 106 -288 121 -320 4 -11
29 -72 55 -135 25 -63 52 -128 59 -145 7 -16 39 -88 71 -160 31 -71 61 -135
66 -141 5 -7 11 -22 13 -34 2 -13 12 -31 21 -41 10 -11 14 -19 10 -19 -6 0
220 -450 283 -565 15 -27 43 -79 62 -115 33 -60 67 -118 97 -165 6 -11 15 -27
19 -35 11 -24 153 -261 185 -307 15 -23 28 -46 28 -52 0 -6 4 -11 9 -11 5 0
11 -8 15 -17 8 -25 29 -57 44 -66 6 -4 12 -12 12 -18 0 -9 48 -87 60 -99 3 -3
23 -33 45 -67 22 -35 43 -63 48 -63 4 0 7 -4 7 -9 0 -9 91 -141 126 -184 7 -9
14 -20 14 -23 0 -2 5 -10 10 -17 6 -7 42 -55 80 -107 38 -52 75 -102 82 -110
8 -8 38 -48 68 -87 30 -40 58 -73 64 -73 5 0 7 -3 3 -6 -5 -5 7 -22 38 -58 6
-6 39 -47 75 -91 36 -44 69 -85 75 -91 5 -6 25 -29 43 -52 19 -23 41 -50 50
-60 51 -58 123 -140 144 -163 69 -78 188 -209 226 -247 23 -25 42 -49 42 -54
0 -5 5 -6 10 -3 6 3 10 2 10 -3 0 -11 266 -279 421 -424 172 -161 193 -180
260 -239 34 -30 68 -59 74 -66 6 -6 41 -35 76 -64 35 -29 66 -55 69 -58 3 -4
32 -28 65 -56 33 -27 62 -53 63 -57 2 -5 10 -8 17 -8 7 0 15 -3 17 -8 2 -4 28
-28 58 -52 30 -25 57 -48 58 -52 2 -5 8 -8 14 -8 5 0 17 -7 25 -16 9 -8 61
-50 117 -92 56 -42 103 -80 104 -84 2 -4 8 -8 13 -8 5 0 40 -24 78 -53 38 -28
79 -59 91 -67 12 -8 41 -28 64 -44 153 -110 524 -351 697 -455 69 -41 165 -96
174 -100 6 -2 12 -7 15 -10 3 -3 21 -14 40 -24 19 -9 53 -28 75 -40 56 -32
192 -107 240 -131 22 -12 42 -24 43 -28 2 -5 8 -8 13 -8 5 0 103 -46 217 -103
212 -105 283 -138 457 -214 55 -24 114 -50 130 -58 17 -7 55 -23 85 -35 30
-12 69 -28 85 -35 37 -17 186 -76 200 -80 6 -1 27 -9 47 -19 21 -9 41 -16 45
-16 4 0 48 -15 98 -34 49 -19 99 -37 110 -42 11 -4 25 -8 30 -10 6 -2 84 -28
175 -59 91 -31 172 -58 181 -60 8 -2 69 -19 135 -39 202 -62 229 -70 239 -72
6 -1 37 -9 70 -18 73 -20 90 -25 113 -30 9 -2 46 -12 82 -21 36 -9 73 -19 83
-21 10 -2 26 -5 35 -8 9 -3 28 -8 42 -10 14 -3 43 -10 65 -15 22 -5 51 -12 65
-15 14 -2 59 -12 100 -21 41 -9 84 -18 95 -21 11 -2 34 -7 50 -10 17 -3 62
-11 100 -19 67 -14 238 -44 280 -50 11 -2 63 -10 115 -19 52 -8 118 -18 145
-21 28 -4 57 -8 65 -10 8 -2 42 -7 75 -10 58 -6 83 -9 155 -19 19 -3 61 -8 93
-11 66 -6 141 -13 212 -20 28 -3 86 -8 130 -11 44 -3 100 -8 125 -9 333 -27
1157 -27 1510 0 19 1 80 5 135 9 55 4 116 9 135 11 19 2 67 7 105 10 39 3 81
8 95 10 14 2 54 7 90 10 36 4 76 8 90 10 14 2 63 9 110 15 47 6 96 13 110 15
35 5 170 26 200 31 14 2 66 11 115 19 116 19 148 25 245 45 30 6 71 13 90 16
19 2 49 9 65 14 17 5 45 12 63 15 19 3 73 15 120 26 48 11 98 23 112 25 14 3
86 21 160 40 74 19 146 38 160 40 14 3 63 16 110 30 47 14 126 37 175 50 50
14 99 29 110 35 11 5 31 12 45 15 30 6 40 9 60 17 8 3 94 31 190 62 96 32 186
62 200 68 14 6 28 11 33 12 4 2 9 4 12 5 3 1 8 3 13 5 4 1 14 4 22 8 8 3 71
27 140 53 185 70 208 79 216 87 4 4 14 7 21 7 8 0 33 9 56 19 23 10 87 38 142
61 120 51 174 75 239 106 28 13 55 24 61 24 6 0 17 6 23 12 7 7 16 13 20 14 4
0 29 10 55 22 27 12 52 22 57 22 5 0 10 3 12 8 2 4 91 51 198 104 229 114 424
219 428 230 2 4 11 8 20 8 8 0 23 6 31 14 9 8 36 25 61 38 39 21 296 174 365
218 13 8 55 34 94 58 38 23 76 48 83 55 7 6 29 21 48 31 19 11 37 22 40 26 3
4 52 37 110 75 58 38 107 71 110 75 3 3 43 32 90 65 47 32 87 62 88 67 2 4 8
8 13 8 6 0 34 18 62 41 29 22 102 78 162 125 61 47 120 93 132 102 12 9 31 24
43 32 12 8 32 24 44 35 12 11 41 36 65 55 82 66 237 198 268 228 7 7 13 11 13
8 0 -3 19 14 43 37 24 23 70 66 103 95 232 207 593 567 791 788 15 18 57 64
93 104 36 40 72 83 81 96 8 13 19 21 22 17 4 -3 7 -2 7 3 0 5 11 22 24 37 14
16 39 46 56 67 18 22 40 48 50 60 10 12 33 40 52 63 18 22 41 49 51 59 9 10
14 18 10 18 -5 0 -3 4 3 8 13 9 117 140 217 273 43 57 94 126 115 154 75 99
323 464 409 601 71 113 246 403 256 424 4 8 17 31 28 50 12 19 31 53 42 75 12
22 24 42 27 45 21 21 350 677 343 684 -4 3 -1 6 5 6 7 0 12 6 12 14 0 7 10 33
23 57 13 24 34 69 46 99 24 56 58 133 92 207 10 24 19 45 19 48 0 4 9 25 19
48 78 172 351 931 376 1047 1 3 7 25 15 50 7 25 15 50 16 55 1 6 14 51 29 100
14 50 28 100 31 112 2 12 8 33 13 45 5 13 9 25 9 28 0 3 5 25 12 50 7 25 14
53 16 64 2 10 13 55 25 100 11 45 22 88 24 96 2 8 11 49 20 90 9 41 18 83 21
93 8 33 12 55 18 88 3 19 8 45 12 59 8 33 21 98 28 135 2 17 7 41 10 55 3 13
8 40 11 60 3 20 8 47 10 60 9 44 54 323 60 370 3 25 7 56 10 70 3 14 7 48 10
75 3 28 10 82 15 120 5 39 12 95 14 125 3 30 8 84 12 120 10 102 12 129 19
224 4 49 8 105 10 125 26 235 26 1385 0 1519 -1 9 -6 66 -10 126 -4 60 -8 116
-10 125 -1 9 -6 57 -9 106 -4 50 -9 97 -11 105 -2 8 -6 42 -9 75 -4 33 -8 76
-11 95 -2 19 -7 58 -10 85 -3 28 -8 61 -10 75 -5 24 -10 59 -21 140 -2 19 -6
46 -9 60 -3 14 -7 43 -10 65 -3 22 -7 51 -10 65 -3 14 -12 66 -20 115 -9 50
-22 122 -30 160 -8 39 -16 84 -19 100 -5 27 -45 211 -67 310 -5 22 -12 51 -15
65 -2 14 -7 33 -10 42 -3 9 -6 25 -8 35 -2 10 -9 38 -16 63 -7 25 -13 50 -14
55 -1 6 -5 19 -9 30 -3 11 -8 31 -11 45 -3 14 -19 75 -36 135 -17 61 -33 117
-35 125 -2 8 -8 27 -14 43 -6 15 -8 27 -6 27 3 0 -2 17 -9 38 -8 20 -29 84
-46 142 -17 58 -41 130 -52 160 -11 30 -21 60 -22 65 -3 17 -48 148 -61 180
-6 17 -18 48 -25 70 -7 22 -20 56 -28 75 -9 19 -17 42 -18 50 -5 22 -166 422
-205 507 -10 24 -19 45 -19 47 0 3 -13 33 -29 68 -16 35 -46 101 -67 148 -50
109 -283 575 -330 660 -20 36 -54 99 -76 140 -22 41 -49 87 -59 101 -10 15
-19 30 -19 32 0 8 -132 228 -220 366 -38 62 -70 116 -70 121 0 6 -5 10 -10 10
-6 0 -14 8 -17 18 -9 24 -165 256 -175 260 -4 2 -8 9 -8 16 0 7 -9 21 -20 31
-11 10 -20 24 -20 31 0 7 -3 14 -8 16 -4 2 -29 35 -57 73 -79 113 -258 350
-267 353 -4 2 -8 8 -8 14 0 6 -8 18 -18 27 -10 9 -29 32 -42 51 -24 34 -37 50
-73 93 -11 12 -33 40 -50 61 -18 22 -42 50 -54 63 -13 13 -23 26 -23 29 0 3
-10 15 -22 28 -13 13 -37 41 -55 62 -17 22 -49 58 -71 82 -21 23 -38 42 -36
42 3 0 -57 66 -251 276 -116 125 -363 372 -499 499 -59 55 -130 121 -158 148
-27 26 -52 47 -55 47 -3 0 -15 10 -27 23 -12 12 -45 42 -75 67 -29 25 -66 56
-81 70 -16 14 -50 43 -76 65 -26 22 -56 48 -66 58 -10 9 -22 17 -27 17 -5 0
-11 3 -13 8 -4 9 -166 142 -173 142 -3 0 -16 11 -29 25 -13 14 -26 25 -30 25
-4 0 -21 13 -39 30 -18 16 -38 30 -44 30 -7 0 -13 3 -13 8 0 4 -23 23 -50 42
-27 19 -50 38 -50 43 0 4 -5 7 -10 7 -6 0 -20 9 -32 20 -12 11 -28 20 -35 20
-7 0 -13 4 -13 9 0 5 -17 20 -37 32 -21 13 -40 25 -43 29 -13 14 -151 110
-159 110 -5 0 -11 4 -13 8 -6 15 -461 312 -477 312 -4 0 -16 9 -26 20 -10 11
-22 20 -27 20 -5 0 -30 14 -56 32 -26 18 -49 32 -52 32 -3 -1 -22 10 -42 22
-21 13 -42 24 -48 24 -5 0 -10 3 -10 8 0 4 -10 12 -23 18 -12 6 -101 55 -197
108 -165 92 -645 335 -755 383 -62 27 -250 109 -290 128 -16 7 -54 23 -84 35
-30 11 -74 30 -97 41 -24 10 -45 19 -48 19 -2 0 -17 5 -33 12 -15 6 -30 12
-33 13 -3 1 -12 5 -20 8 -25 11 -284 109 -295 111 -5 2 -18 6 -27 9 -10 4 -26
10 -35 14 -10 3 -22 7 -28 9 -5 1 -71 24 -145 49 -242 83 -711 220 -820 241
-14 3 -39 9 -56 15 -17 5 -40 11 -50 13 -10 2 -78 18 -151 35 -72 17 -153 36
-180 41 -26 5 -59 12 -73 15 -72 15 -213 42 -290 55 -30 5 -71 12 -90 16 -19
3 -44 8 -55 9 -81 13 -106 17 -155 25 -30 5 -75 12 -100 15 -25 3 -76 10 -115
16 -114 16 -137 18 -205 24 -36 3 -76 7 -90 10 -14 2 -56 7 -95 11 -38 3 -88
8 -110 10 -71 7 -147 13 -255 19 -58 4 -130 9 -160 11 -59 6 -986 14 -992 9z
m800 -409 c147 -9 326 -23 407 -31 22 -3 72 -7 110 -10 69 -6 102 -9 200 -21
141 -15 200 -23 235 -29 14 -2 45 -7 70 -10 39 -6 177 -27 265 -41 17 -3 37
-7 45 -9 8 -2 33 -6 55 -9 22 -4 51 -8 65 -11 14 -2 36 -7 50 -9 14 -3 61 -12
105 -21 44 -9 89 -18 100 -19 42 -7 183 -38 255 -56 41 -10 86 -21 100 -24 42
-8 65 -14 111 -26 24 -6 60 -16 79 -21 19 -5 94 -25 165 -44 72 -20 137 -37
145 -39 8 -3 27 -9 43 -15 15 -6 27 -8 27 -6 0 3 17 -1 38 -9 20 -8 66 -23
102 -34 311 -97 778 -263 935 -332 11 -5 54 -23 95 -40 41 -17 84 -35 95 -40
11 -5 83 -37 160 -71 77 -33 146 -65 153 -71 6 -6 12 -8 12 -5 0 6 461 -223
595 -296 150 -81 170 -92 175 -97 3 -3 21 -13 40 -22 19 -10 49 -26 65 -36 17
-9 72 -42 123 -72 51 -30 104 -62 117 -70 13 -8 43 -27 67 -41 95 -57 153 -94
156 -101 2 -5 8 -8 13 -8 6 0 80 -47 166 -105 85 -58 159 -105 164 -105 5 0 9
-4 9 -9 0 -4 27 -25 60 -46 33 -21 60 -42 60 -46 0 -5 5 -9 11 -9 15 0 467
-337 509 -380 3 -3 39 -32 80 -65 82 -65 100 -80 135 -110 13 -11 49 -42 81
-70 32 -27 71 -62 87 -77 16 -16 31 -28 34 -28 3 0 21 -16 42 -35 20 -19 50
-47 66 -61 51 -45 287 -267 322 -304 18 -19 33 -38 33 -42 0 -4 7 -8 15 -8 8
0 15 -3 15 -7 0 -5 31 -40 68 -79 74 -78 189 -204 249 -273 21 -24 49 -57 63
-72 14 -15 39 -44 55 -65 17 -20 35 -41 40 -48 113 -129 245 -294 245 -306 0
-5 4 -10 8 -10 4 0 26 -24 47 -52 52 -69 46 -62 115 -150 33 -43 60 -82 60
-87 0 -5 3 -11 8 -13 8 -3 50 -59 101 -133 19 -27 40 -56 47 -63 7 -6 16 -21
19 -32 3 -11 11 -20 16 -20 5 0 9 -5 9 -10 0 -10 8 -22 38 -55 6 -7 12 -17 12
-22 0 -4 11 -21 25 -37 14 -16 25 -35 25 -42 0 -7 4 -14 8 -16 11 -4 92 -124
92 -137 0 -5 3 -11 8 -13 6 -2 66 -97 218 -345 8 -12 22 -37 33 -56 10 -19 25
-45 33 -58 7 -13 15 -26 19 -29 3 -3 13 -22 22 -42 10 -20 22 -40 27 -43 6 -4
8 -11 5 -16 -4 -5 -1 -9 4 -9 6 0 11 -4 11 -9 0 -5 27 -57 61 -117 62 -111
340 -664 334 -664 -2 0 14 -36 36 -80 21 -44 39 -83 39 -86 0 -3 12 -31 26
-62 32 -72 39 -88 60 -137 9 -22 32 -78 51 -125 19 -47 45 -112 58 -145 12
-33 44 -116 70 -185 85 -224 238 -689 270 -820 2 -8 17 -62 33 -120 30 -104
80 -296 88 -335 6 -26 9 -41 39 -170 22 -96 49 -217 61 -280 2 -11 6 -31 9
-45 8 -44 15 -81 46 -255 16 -93 32 -183 35 -200 3 -16 7 -43 9 -60 4 -42 16
-125 21 -155 4 -24 8 -60 19 -155 3 -22 7 -49 9 -60 2 -11 7 -56 11 -100 4
-44 8 -93 10 -110 3 -16 7 -61 10 -100 7 -90 15 -196 20 -265 24 -308 24 -838
0 -1110 -2 -19 -6 -78 -10 -130 -4 -52 -8 -108 -10 -125 -1 -16 -6 -59 -9 -95
-12 -124 -15 -155 -22 -205 -4 -27 -7 -53 -6 -56 1 -4 -3 -33 -8 -65 -5 -33
-12 -84 -16 -114 -3 -30 -8 -64 -9 -75 -2 -11 -6 -38 -9 -60 -9 -58 -15 -97
-21 -125 -3 -14 -8 -45 -11 -70 -5 -45 -9 -68 -17 -105 -3 -11 -8 -40 -12 -65
-14 -88 -67 -346 -94 -460 -11 -47 -22 -96 -25 -110 -5 -21 -13 -58 -31 -130
-2 -8 -16 -60 -30 -115 -14 -55 -28 -108 -30 -118 -2 -10 -7 -27 -10 -37 -3
-10 -8 -27 -10 -37 -6 -24 -28 -101 -55 -188 -12 -38 -22 -74 -24 -80 -8 -30
-41 -136 -53 -170 -8 -22 -16 -47 -18 -55 -5 -25 -66 -203 -81 -237 -8 -17
-14 -36 -14 -42 0 -6 -6 -25 -14 -43 -8 -18 -26 -67 -41 -108 -39 -105 -133
-347 -156 -397 -10 -23 -19 -44 -19 -47 0 -3 -12 -31 -26 -63 -14 -32 -29 -67
-34 -78 -5 -11 -20 -45 -33 -75 -14 -30 -37 -82 -52 -115 -15 -33 -45 -97 -66
-141 -21 -45 -39 -86 -39 -93 0 -6 -3 -11 -7 -11 -5 0 -19 -27 -33 -60 -14
-33 -28 -60 -32 -60 -5 0 -8 -6 -8 -14 0 -7 -17 -44 -37 -82 -21 -38 -51 -96
-68 -129 -16 -33 -32 -62 -35 -65 -3 -3 -15 -25 -28 -50 -12 -25 -36 -70 -53
-100 -17 -30 -38 -68 -48 -85 -9 -16 -22 -36 -29 -43 -7 -8 -10 -17 -7 -21 2
-5 -5 -17 -15 -29 -11 -12 -20 -23 -20 -26 0 -14 -227 -380 -357 -575 -46 -68
-83 -128 -83 -133 0 -4 -4 -8 -8 -8 -5 0 -17 -16 -28 -35 -10 -19 -21 -35 -25
-35 -3 0 -14 -16 -25 -35 -10 -19 -22 -35 -26 -35 -5 0 -8 -5 -8 -11 0 -6 -6
-16 -12 -24 -7 -7 -38 -48 -68 -90 -45 -63 -122 -165 -158 -210 -4 -5 -19 -26
-32 -45 -14 -19 -28 -37 -31 -40 -4 -3 -24 -27 -44 -55 -21 -27 -41 -52 -44
-55 -4 -3 -31 -36 -61 -75 -30 -38 -66 -82 -80 -97 -14 -15 -29 -33 -35 -40
-9 -13 -88 -106 -145 -172 -14 -16 -38 -44 -55 -62 -16 -18 -57 -62 -89 -98
-144 -160 -297 -316 -441 -451 -59 -55 -121 -112 -136 -127 -16 -15 -29 -26
-29 -24 0 2 -19 -15 -42 -38 -24 -23 -74 -68 -113 -101 -38 -33 -72 -62 -75
-65 -3 -3 -30 -25 -60 -50 -30 -24 -68 -57 -84 -72 -16 -15 -38 -30 -48 -34
-10 -3 -16 -10 -13 -15 4 -5 0 -9 -7 -9 -8 0 -21 -8 -30 -17 -18 -20 -25 -25
-83 -68 -22 -17 -42 -32 -45 -35 -8 -9 -65 -54 -94 -75 -47 -35 -220 -165
-239 -180 -9 -8 -21 -15 -26 -15 -4 0 -16 -9 -26 -20 -10 -11 -22 -20 -27 -20
-5 0 -16 -7 -25 -15 -8 -9 -43 -34 -77 -57 -33 -23 -66 -47 -72 -52 -6 -6 -27
-20 -47 -31 -20 -11 -37 -23 -37 -27 0 -5 -5 -8 -11 -8 -6 0 -25 -11 -43 -25
-18 -14 -38 -25 -44 -25 -7 0 -12 -3 -12 -8 0 -10 -305 -202 -321 -202 -5 0
-9 -4 -9 -8 0 -5 -12 -15 -27 -23 -16 -7 -52 -28 -81 -46 -29 -18 -56 -33 -61
-33 -4 0 -19 -8 -32 -18 -13 -10 -55 -36 -94 -57 -38 -21 -88 -49 -110 -61
-92 -52 -201 -109 -385 -201 -107 -54 -198 -102 -202 -108 -4 -5 -8 -7 -8 -3
0 4 -42 -14 -92 -39 -51 -26 -97 -48 -103 -49 -15 -3 -165 -72 -200 -91 -16
-10 -32 -17 -35 -16 -3 0 -16 -4 -30 -10 -14 -6 -27 -11 -30 -12 -3 -1 -17 -7
-32 -13 -16 -7 -40 -17 -55 -24 -16 -6 -30 -12 -33 -13 -3 -1 -16 -7 -30 -13
-120 -51 -586 -222 -745 -272 -38 -12 -79 -25 -90 -30 -27 -11 -402 -122 -455
-135 -8 -2 -94 -24 -190 -49 -96 -25 -186 -48 -200 -50 -14 -2 -25 -5 -25 -6
0 -1 -9 -3 -20 -5 -11 -1 -103 -21 -205 -43 -102 -22 -201 -43 -220 -46 -19
-3 -44 -7 -55 -10 -65 -13 -196 -36 -234 -41 -23 -3 -46 -7 -50 -9 -3 -2 -28
-6 -56 -10 -27 -3 -61 -8 -74 -11 -14 -2 -47 -7 -75 -10 -28 -3 -76 -10 -106
-15 -30 -5 -84 -12 -120 -15 -36 -3 -72 -8 -80 -10 -8 -2 -46 -6 -85 -10 -38
-3 -88 -8 -110 -10 -49 -6 -135 -13 -235 -20 -41 -3 -97 -8 -125 -10 -114 -11
-363 -19 -550 -19 -191 0 -520 11 -567 19 -13 2 -66 7 -118 10 -52 3 -108 8
-125 10 -16 2 -64 7 -105 10 -107 9 -202 19 -285 30 -50 7 -198 27 -235 31
-19 3 -60 9 -90 14 -30 5 -73 12 -95 15 -67 10 -79 12 -110 18 -16 4 -50 9
-75 13 -24 3 -48 7 -51 10 -4 2 -22 6 -40 9 -77 11 -367 70 -469 95 -41 10
-86 21 -100 24 -34 7 -54 12 -127 31 -62 16 -83 21 -132 31 -14 3 -28 7 -33
10 -4 3 -16 7 -25 9 -10 2 -52 13 -93 25 -41 11 -83 22 -93 25 -9 2 -21 6 -25
9 -5 3 -19 7 -33 9 -23 5 -146 42 -179 54 -8 3 -20 7 -25 8 -23 5 -293 95
-425 141 -8 3 -17 6 -20 6 -3 1 -35 14 -72 29 -38 15 -68 25 -68 22 0 -3 -6
-1 -12 4 -7 5 -33 17 -58 26 -25 9 -58 22 -75 28 -16 7 -32 13 -35 14 -3 1
-22 9 -44 18 -21 9 -40 17 -43 17 -5 0 -182 74 -240 101 -24 10 -45 19 -47 19
-5 0 -112 47 -191 85 -27 13 -60 26 -72 30 -13 3 -23 11 -23 16 0 5 -7 9 -15
9 -17 0 -485 233 -528 262 -15 11 -27 16 -27 11 0 -4 -4 -3 -8 2 -4 6 -22 18
-40 27 -82 43 -190 103 -224 125 -21 12 -42 23 -48 23 -5 0 -10 3 -10 8 0 4
-23 18 -50 31 -28 14 -50 29 -50 33 0 4 -5 8 -12 8 -14 0 -344 205 -376 233
-12 11 -22 17 -22 14 0 -4 -21 8 -48 26 -156 110 -183 127 -192 127 -5 0 -10
4 -10 9 0 4 -27 25 -60 46 -33 21 -60 42 -60 46 0 5 -5 9 -10 9 -13 0 -323
229 -328 241 -2 5 -10 9 -18 9 -8 0 -17 7 -20 15 -4 8 -10 15 -15 15 -6 0 -21
10 -35 23 -44 40 -58 51 -137 111 -42 32 -77 63 -77 68 0 5 -4 6 -10 3 -6 -3
-10 -2 -10 3 0 5 -20 25 -44 44 -60 47 -141 115 -189 161 -22 20 -41 37 -44
37 -2 0 -22 17 -45 37 -22 21 -55 52 -73 68 -251 232 -285 265 -450 441 -151
161 -184 196 -215 233 -14 17 -42 48 -62 69 -21 21 -38 41 -38 45 0 3 -15 21
-32 39 -18 19 -49 54 -68 78 -19 23 -40 48 -45 54 -6 6 -50 61 -98 121 -48 61
-93 117 -101 125 -7 8 -51 65 -96 125 -46 61 -86 112 -89 115 -4 3 -10 13 -16
22 -15 25 -158 222 -166 228 -3 3 -14 20 -23 38 -9 17 -21 32 -27 32 -6 0 -8
4 -5 9 4 5 2 11 -2 13 -5 1 -49 64 -98 138 -49 74 -94 141 -101 148 -7 7 -13
17 -13 22 0 5 -23 43 -50 84 -28 42 -50 80 -50 86 0 5 -4 10 -10 10 -5 0 -10
7 -10 15 0 8 -4 15 -10 15 -5 0 -10 4 -10 9 0 5 -18 39 -41 76 -68 112 -133
227 -252 445 -74 135 -319 622 -323 640 -1 5 -21 49 -73 163 -17 37 -31 70
-31 72 0 2 -11 28 -24 57 -13 29 -41 94 -61 143 -20 50 -40 99 -45 110 -25 59
-149 386 -155 410 -2 12 -14 43 -25 70 -5 11 -25 72 -45 135 -21 63 -42 129
-48 145 -7 17 -12 35 -14 40 -1 6 -29 102 -62 215 -86 287 -92 309 -97 331 -8
38 -12 55 -38 154 -13 55 -27 111 -30 125 -3 14 -15 66 -26 115 -12 50 -25
110 -30 135 -5 25 -12 56 -15 70 -25 119 -76 397 -90 495 -3 22 -10 67 -15
100 -5 33 -12 76 -14 95 -3 19 -8 53 -11 75 -6 40 -10 72 -20 155 -6 49 -14
118 -20 165 -2 17 -7 66 -11 110 -3 44 -8 94 -10 110 -2 17 -6 68 -9 115 -4
47 -8 103 -10 125 -24 283 -24 845 0 1120 2 22 6 83 10 135 4 52 8 109 10 125
1 17 6 64 9 105 4 41 9 86 11 100 5 37 17 141 20 175 3 30 10 84 21 160 3 22
7 51 9 65 2 14 6 39 9 55 5 32 17 110 20 135 6 45 20 132 31 188 13 64 38 198
39 212 1 8 5 26 9 40 4 14 9 36 11 50 2 14 7 36 10 50 3 14 17 79 31 145 15
66 45 190 66 275 22 85 42 162 44 170 1 8 15 60 30 115 26 98 34 125 91 310
16 50 29 92 29 95 10 56 256 737 282 778 8 13 12 26 10 29 -3 2 6 26 19 53 13
26 24 51 24 55 0 3 8 25 19 48 10 23 29 67 41 97 12 30 39 89 58 130 20 41 36
77 37 80 1 3 9 22 18 43 9 20 17 41 17 45 1 4 9 15 17 25 9 9 13 17 10 17 -6
0 39 99 64 140 5 8 14 26 19 40 6 14 21 45 34 70 13 25 62 119 109 210 92 176
219 407 237 427 5 7 10 14 10 17 0 7 117 201 152 253 15 23 28 46 28 50 0 5 9
19 20 31 12 12 18 22 15 22 -3 0 -1 6 4 13 6 6 70 102 144 212 164 246 196
293 225 325 12 13 22 28 22 31 0 4 19 32 43 63 23 30 58 77 77 103 19 27 41
54 48 61 6 7 12 16 12 20 0 4 16 24 35 45 18 20 31 37 27 37 -4 0 -2 4 4 8 5
4 46 52 90 107 81 102 97 122 134 165 12 14 36 42 53 63 18 22 40 49 51 60 10
12 37 44 60 71 22 26 55 63 71 80 17 18 59 65 95 105 63 72 113 125 250 266
58 60 134 133 319 305 43 40 155 139 222 196 25 21 71 62 104 89 32 28 63 55
69 60 6 6 31 26 56 45 25 18 53 41 62 49 9 9 23 21 30 26 7 6 45 35 83 65 39
31 133 103 210 160 77 58 142 108 143 113 2 4 8 7 13 7 8 0 70 44 121 85 9 7
27 19 40 26 13 6 25 15 28 18 4 5 93 67 174 120 135 90 168 111 176 111 6 0
10 5 10 10 0 6 5 10 11 10 6 0 29 13 52 28 85 58 157 102 167 102 5 0 10 5 10
10 0 6 5 10 10 10 6 0 34 15 63 33 29 18 63 38 77 45 14 6 53 30 88 51 34 22
62 37 62 34 0 -3 8 0 18 8 9 8 27 20 40 27 59 33 148 80 262 140 69 35 129 68
135 73 5 5 17 9 26 9 10 0 19 3 21 8 2 4 37 23 78 42 41 19 83 41 94 50 10 8
21 14 25 13 3 -1 26 7 51 18 25 11 45 19 46 17 0 -2 7 2 15 9 8 6 77 39 154
72 77 34 149 66 160 71 52 24 114 50 118 50 3 0 26 10 53 22 27 12 53 21 58
20 4 -2 13 2 20 7 6 5 72 32 146 60 74 28 142 54 150 58 8 3 20 7 25 9 6 2 82
29 170 60 344 121 776 246 1130 329 156 36 454 99 515 109 19 3 70 12 114 20
43 9 94 17 115 20 20 3 45 7 56 9 11 3 45 8 75 13 30 4 57 8 60 9 3 1 34 5 70
9 36 5 74 10 85 12 19 4 50 8 145 19 25 3 59 7 75 9 17 2 57 7 90 10 33 4 80
9 105 11 72 8 159 15 245 21 44 3 96 7 115 9 19 3 109 7 200 11 91 3 166 7
168 9 5 4 483 -3 590 -9z"/>
<path d="M14657 26834 c-1 -1 -69 -5 -152 -8 -82 -4 -172 -9 -200 -10 -180
-13 -244 -18 -275 -21 -19 -2 -60 -6 -90 -9 -30 -3 -73 -7 -95 -10 -22 -2 -67
-7 -100 -11 -33 -3 -71 -8 -85 -10 -14 -2 -47 -6 -75 -9 -88 -11 -186 -24
-225 -31 -14 -2 -41 -7 -60 -9 -42 -6 -107 -17 -135 -22 -11 -3 -36 -7 -55
-10 -51 -8 -82 -13 -110 -19 -14 -3 -50 -9 -80 -15 -71 -13 -99 -18 -130 -25
-14 -3 -34 -7 -45 -9 -11 -3 -41 -9 -68 -15 -26 -6 -64 -14 -85 -17 -20 -3
-39 -7 -42 -9 -4 -3 -196 -48 -290 -70 -8 -1 -35 -8 -60 -15 -25 -7 -52 -14
-60 -16 -8 -1 -58 -15 -110 -29 -52 -15 -102 -28 -110 -30 -8 -2 -26 -8 -40
-13 -14 -5 -29 -10 -35 -11 -5 -1 -41 -11 -80 -23 -38 -12 -74 -22 -80 -24
-44 -10 -394 -128 -570 -192 -197 -72 -232 -86 -306 -118 -44 -18 -83 -34 -87
-35 -4 0 -25 -9 -47 -18 -46 -21 -78 -34 -85 -35 -3 -1 -31 -14 -64 -29 -32
-15 -65 -27 -72 -27 -8 0 -14 -4 -14 -10 0 -5 -6 -10 -14 -10 -17 0 -261 -113
-466 -215 -125 -62 -383 -196 -395 -205 -5 -4 -46 -27 -90 -50 -44 -24 -158
-90 -253 -147 -96 -56 -178 -103 -183 -103 -5 0 -9 -3 -9 -7 0 -5 -23 -21 -51
-38 -80 -47 -83 -49 -116 -72 -17 -13 -36 -23 -41 -23 -6 0 -12 -3 -14 -7 -1
-5 -82 -61 -178 -126 -217 -147 -235 -159 -428 -304 -171 -127 -353 -271 -364
-288 -4 -5 -8 -7 -8 -2 0 4 -8 -1 -19 -10 -42 -40 -84 -73 -93 -73 -5 0 -6 -4
-3 -10 3 -5 2 -10 -2 -10 -9 0 -37 -22 -167 -135 -236 -204 -504 -464 -656
-634 -36 -41 -78 -87 -93 -102 -16 -16 -26 -29 -23 -29 3 0 -10 -15 -27 -32
-18 -18 -79 -89 -136 -158 -58 -69 -111 -131 -120 -137 -8 -7 -12 -13 -8 -13
4 0 -1 -8 -10 -18 -10 -11 -25 -28 -33 -38 -8 -11 -31 -40 -51 -64 -78 -98
-209 -271 -209 -277 0 -3 -6 -11 -13 -17 -8 -6 -47 -58 -87 -116 -41 -58 -77
-107 -80 -110 -3 -3 -55 -79 -115 -170 -61 -91 -113 -166 -117 -168 -5 -2 -8
-8 -8 -14 0 -5 -13 -28 -29 -51 -55 -80 -231 -371 -319 -527 -14 -25 -34 -61
-45 -80 -75 -130 -290 -545 -291 -562 -1 -4 -7 -13 -14 -19 -6 -7 -12 -17 -12
-23 0 -5 -14 -39 -31 -75 -58 -121 -83 -176 -84 -181 -1 -3 -12 -27 -24 -55
-13 -27 -38 -84 -56 -125 -18 -41 -42 -96 -54 -122 -11 -26 -21 -52 -21 -58 0
-5 -4 -18 -10 -28 -15 -26 -71 -165 -75 -184 -2 -10 -10 -32 -18 -50 -9 -18
-25 -60 -36 -93 -12 -33 -26 -69 -31 -80 -23 -50 -206 -606 -225 -685 -3 -8
-16 -55 -30 -105 -25 -88 -94 -345 -100 -375 -2 -8 -17 -73 -35 -145 -17 -71
-33 -139 -34 -150 -2 -11 -6 -31 -10 -45 -3 -14 -8 -36 -10 -50 -3 -14 -7 -36
-10 -50 -3 -14 -9 -41 -12 -60 -4 -19 -8 -42 -10 -50 -20 -104 -44 -232 -49
-260 -6 -39 -16 -94 -21 -125 -2 -11 -6 -42 -10 -70 -3 -27 -7 -52 -9 -55 -4
-6 -12 -69 -20 -140 -1 -14 -5 -48 -9 -75 -10 -70 -14 -100 -21 -175 -4 -36
-8 -76 -10 -89 -3 -14 -7 -54 -10 -90 -4 -36 -8 -84 -11 -106 -2 -22 -6 -80
-10 -130 -3 -49 -8 -110 -9 -135 -19 -253 -23 -511 -11 -745 8 -144 10 -177
20 -305 4 -41 9 -106 11 -145 3 -38 7 -86 9 -105 3 -19 8 -60 11 -90 3 -30 8
-71 10 -90 3 -19 7 -54 10 -77 13 -108 24 -193 30 -228 1 -11 6 -42 10 -70 9
-70 11 -84 35 -225 28 -165 27 -158 38 -210 6 -25 13 -63 17 -86 3 -22 10 -55
15 -72 5 -18 7 -32 5 -32 -3 0 -1 -10 4 -23 5 -13 12 -41 15 -63 6 -38 28
-135 51 -224 0 -3 5 -23 10 -45 11 -52 8 -40 50 -200 20 -77 38 -144 39 -150
1 -5 8 -30 15 -55 7 -25 15 -52 17 -60 3 -14 22 -78 64 -215 11 -36 29 -93 39
-127 11 -35 29 -90 40 -123 12 -33 24 -69 26 -80 3 -11 9 -29 14 -40 5 -11 21
-54 35 -95 38 -112 67 -194 74 -205 4 -5 7 -14 8 -20 5 -28 106 -280 132 -330
9 -16 15 -31 14 -33 -1 -1 4 -17 12 -35 88 -206 109 -254 118 -264 6 -7 7 -13
4 -13 -4 0 1 -17 12 -37 11 -21 88 -177 173 -348 84 -170 162 -326 174 -345
12 -19 40 -69 62 -110 61 -113 181 -320 236 -407 15 -24 27 -47 27 -53 0 -5 4
-10 10 -10 5 0 16 -15 25 -33 20 -44 135 -221 146 -225 5 -2 9 -8 9 -13 0 -13
81 -133 92 -137 4 -2 8 -8 8 -13 0 -9 31 -57 55 -85 11 -14 105 -148 120 -173
6 -9 12 -18 15 -21 3 -3 23 -30 45 -60 22 -30 44 -60 50 -67 5 -7 16 -19 23
-27 6 -8 12 -18 12 -21 0 -3 8 -14 18 -24 19 -22 25 -30 66 -86 16 -22 34 -44
40 -50 6 -5 29 -35 51 -65 22 -30 49 -64 60 -75 12 -11 34 -38 50 -60 16 -21
36 -47 45 -56 8 -9 29 -33 45 -53 17 -21 44 -52 60 -71 17 -18 48 -54 70 -80
22 -27 51 -60 65 -75 14 -16 61 -68 105 -116 90 -101 366 -377 444 -444 28
-25 69 -61 89 -80 21 -19 85 -75 142 -125 58 -49 110 -94 116 -100 7 -5 29
-24 50 -41 81 -66 224 -180 251 -201 15 -12 39 -30 51 -40 13 -10 48 -37 77
-61 30 -23 58 -42 64 -42 6 0 11 -4 11 -9 0 -5 15 -18 33 -30 25 -16 208 -147
263 -188 5 -4 17 -12 26 -18 9 -5 77 -52 152 -103 75 -50 140 -92 145 -92 5 0
11 -3 13 -7 3 -9 64 -53 72 -53 2 0 38 -21 78 -47 106 -69 238 -148 308 -186
19 -11 42 -25 50 -31 8 -7 30 -18 48 -26 17 -7 32 -15 32 -19 0 -4 20 -15 45
-26 25 -11 45 -24 45 -29 0 -5 3 -6 7 -3 3 4 12 2 20 -5 16 -13 96 -56 213
-115 41 -21 78 -42 82 -48 4 -5 8 -7 8 -2 0 4 18 -4 40 -18 22 -14 42 -25 44
-25 2 0 87 -40 188 -88 163 -79 211 -102 228 -107 3 -1 32 -14 65 -29 100 -46
352 -151 495 -206 74 -28 144 -56 155 -60 20 -9 97 -37 125 -45 8 -3 60 -21
115 -41 91 -32 430 -143 458 -148 7 -2 19 -6 27 -9 8 -3 35 -12 60 -18 53 -15
51 -14 70 -21 16 -6 126 -36 163 -44 29 -7 37 -9 67 -17 55 -16 101 -28 245
-63 83 -20 157 -37 165 -39 135 -28 422 -86 445 -90 17 -2 39 -7 50 -9 11 -2
40 -7 65 -11 25 -4 54 -9 65 -11 41 -8 231 -36 260 -39 17 -2 44 -5 60 -8 39
-7 98 -15 158 -22 26 -3 66 -7 90 -10 152 -18 300 -32 422 -41 44 -3 103 -7
130 -9 265 -22 679 -22 935 0 19 1 76 6 125 9 134 10 195 16 245 22 46 6 76 9
185 19 60 6 73 8 150 20 22 3 63 8 90 11 28 2 64 7 80 10 17 3 39 7 50 9 42 5
121 18 140 21 34 7 149 26 170 29 11 1 83 15 160 30 77 15 151 29 165 32 14 2
43 9 65 15 22 6 49 12 60 12 11 1 29 5 40 9 11 3 32 9 48 12 15 3 39 7 55 10
15 3 41 10 57 15 17 5 44 11 60 13 17 3 42 10 56 15 14 6 41 13 60 16 19 3 50
10 69 16 46 14 57 17 107 30 24 5 111 30 195 55 84 25 161 48 171 50 9 2 21 6
25 9 5 3 19 7 33 10 13 2 49 13 79 24 30 11 57 20 60 20 3 0 19 6 35 12 17 7
37 13 45 15 27 6 367 127 435 155 11 5 63 25 115 45 88 34 135 54 185 75 11 5
70 30 130 55 61 26 124 52 140 60 117 52 162 73 251 116 56 27 112 53 125 59
13 5 31 14 39 19 8 5 51 27 95 49 73 36 199 101 330 171 28 14 52 28 55 31 3
3 19 12 35 20 17 8 32 17 35 20 3 3 21 13 40 24 75 40 126 70 153 88 15 11 27
16 27 11 0 -4 4 -3 8 2 4 6 41 31 82 55 41 24 77 47 80 50 3 3 21 14 40 24 19
11 37 22 40 25 7 8 39 27 78 47 17 9 32 20 32 25 0 5 5 9 11 9 7 0 34 16 60
35 27 19 53 35 58 35 5 0 11 3 13 8 2 4 44 34 93 67 160 106 653 468 675 494
3 4 37 31 75 61 87 67 199 162 203 173 2 4 8 7 13 7 6 0 20 10 32 23 12 12 53
49 92 82 92 79 128 111 182 163 24 23 47 42 49 42 7 0 321 315 384 386 131
146 211 236 255 289 17 20 39 47 50 59 11 13 34 40 52 62 17 21 55 68 85 104
29 36 56 70 61 75 4 6 17 21 28 35 101 119 579 784 579 804 0 4 8 16 18 27 11
10 25 32 33 47 8 15 22 36 32 46 9 11 17 24 17 29 0 5 10 23 23 40 12 17 27
39 32 49 6 9 40 67 78 128 37 61 67 115 67 120 0 4 4 10 8 12 8 3 70 110 96
165 6 13 14 23 19 23 4 0 7 4 7 9 0 5 20 44 43 87 131 237 303 579 387 769 12
28 32 73 45 100 12 28 46 106 75 175 29 69 59 139 66 157 24 54 105 265 136
353 16 47 33 90 38 95 5 6 8 13 8 18 1 10 51 166 62 192 11 24 161 504 166
530 1 6 9 35 18 66 9 31 19 65 21 75 3 11 27 109 55 219 28 110 53 213 55 228
3 16 14 66 25 112 11 46 22 97 25 114 3 17 14 77 26 133 27 139 82 465 94 553
1 11 6 45 10 75 4 30 9 66 10 80 2 14 6 50 10 80 4 30 9 69 11 85 5 40 11 94
19 190 4 44 9 94 11 110 1 17 6 71 9 120 4 50 8 106 10 125 22 225 22 654 0
945 -13 164 -16 205 -20 253 -9 95 -16 167 -20 197 -3 17 -7 55 -10 85 -3 30
-7 71 -10 90 -2 19 -7 58 -10 85 -4 28 -8 62 -10 76 -3 14 -7 41 -9 60 -3 19
-12 81 -21 139 -9 58 -18 114 -19 125 -2 11 -8 47 -14 80 -6 33 -13 74 -16 90
-3 17 -12 66 -21 109 -8 44 -17 91 -20 105 -11 60 -16 82 -40 191 -23 99 -50
222 -58 255 -2 6 -6 16 -10 23 -5 6 -6 12 -3 12 2 0 -7 42 -21 93 -13 50 -27
103 -29 117 -3 14 -12 50 -22 80 -9 30 -16 58 -16 62 -1 3 -4 9 -8 13 -4 4 -4
13 -2 20 3 7 1 16 -5 20 -6 3 -11 14 -11 24 0 10 -9 44 -19 77 -80 252 -105
330 -107 340 -2 12 -63 185 -100 284 -13 36 -24 69 -24 73 0 4 -7 23 -15 43
-8 19 -14 37 -15 39 0 3 -11 30 -25 60 -13 31 -24 56 -24 58 1 12 -123 316
-182 445 -16 35 -29 65 -29 67 0 4 -31 72 -119 260 -75 160 -232 465 -305 593
-20 35 -36 65 -36 67 0 2 -27 49 -60 105 -33 56 -60 106 -60 111 0 5 -5 9 -11
9 -5 0 -8 4 -5 9 3 5 -1 14 -9 21 -8 7 -15 19 -15 26 0 8 -3 14 -8 14 -4 0
-12 8 -17 19 -34 64 -59 107 -64 111 -10 8 -42 63 -48 83 -3 9 -9 17 -14 17
-5 0 -9 4 -9 8 0 7 -218 344 -237 367 -12 14 -146 203 -158 223 -5 10 -12 19
-15 22 -3 3 -17 21 -30 40 -20 28 -81 110 -177 235 -51 66 -89 112 -102 123
-8 6 -12 12 -8 12 6 0 -7 19 -38 54 -6 6 -30 36 -55 66 -52 64 -56 68 -186
220 -119 139 -128 149 -199 225 -30 33 -55 64 -55 68 0 5 -4 5 -10 2 -5 -3
-10 -2 -10 4 0 6 -30 42 -67 80 -38 38 -75 79 -83 90 -8 12 -18 21 -22 21 -3
0 -31 24 -60 53 -30 28 -96 90 -148 137 -119 108 -126 115 -196 175 -32 28
-74 64 -94 81 -19 17 -46 39 -59 50 -13 10 -31 26 -41 35 -9 8 -39 33 -67 55
-110 86 -198 159 -201 166 -2 4 -10 8 -17 8 -7 0 -15 4 -17 8 -1 5 -30 28 -63
53 -33 24 -71 54 -85 67 -14 12 -27 22 -31 22 -5 0 -99 69 -136 100 -7 5 -16
10 -22 10 -5 0 -11 4 -13 8 -1 4 -25 23 -53 42 -27 19 -52 37 -55 40 -3 3 -13
10 -22 15 -9 6 -57 38 -106 73 -50 34 -95 62 -100 62 -6 0 -12 4 -14 8 -4 11
-94 72 -106 72 -6 0 -12 4 -14 8 -1 5 -75 52 -163 106 -88 54 -177 109 -197
122 -21 13 -39 24 -42 24 -2 0 -50 27 -105 60 -56 33 -103 60 -105 60 -3 0
-42 21 -88 48 -46 26 -106 58 -133 72 -28 14 -53 30 -57 35 -4 6 -8 6 -8 2 0
-5 -12 0 -27 11 -16 11 -31 20 -36 21 -4 0 -57 26 -117 56 -60 30 -111 54
-112 53 -2 -2 -18 7 -35 20 -18 13 -33 21 -33 18 0 -3 -26 8 -57 23 -60 30
-173 82 -233 108 -19 9 -53 24 -75 34 -86 38 -237 100 -390 159 -88 34 -169
66 -180 71 -11 4 -99 36 -195 69 -96 34 -192 68 -213 76 -20 7 -38 14 -40 13
-3 -1 0 -2 -255 78 -24 7 -125 36 -225 63 -100 28 -198 55 -217 60 -43 13
-158 40 -185 45 -11 2 -20 4 -20 5 0 1 -7 3 -15 5 -13 2 -112 23 -145 31 -5 1
-41 9 -80 18 -38 9 -86 19 -105 22 -19 3 -38 8 -41 10 -4 2 -28 6 -55 9 -26 4
-51 8 -54 10 -6 4 -54 14 -95 20 -11 1 -47 7 -80 13 -33 6 -76 14 -95 17 -19
3 -46 7 -60 10 -46 9 -85 14 -135 20 -27 3 -57 8 -65 10 -8 2 -40 7 -70 10
-30 3 -67 8 -81 10 -34 6 -81 12 -154 19 -33 4 -80 9 -105 12 -134 14 -123 13
-315 29 -245 20 -697 38 -708 29z"/>
</g>
</svg>
